<?xml version="1.0" encoding="UTF-8"?>
<svg id="Calque_1" data-name="Calque 1" xmlns="http://www.w3.org/2000/svg" version="1.1" viewBox="0 0 54 59">
  <defs>
    <style>
      .cls-1 {
        fill: #7984ba;
        stroke-width: 0px;
      }
    </style>
  </defs>
  <path class="cls-1" d="M41.82,25.73l-3.6-2.8v-2.09c0-1.56-1.27-2.83-2.83-2.83h-3.51l-4.05-3.15c-.23-.18-.52-.28-.82-.28h0c-.3,0-.6.1-.83.29l-4.05,3.14h-3.51c-1.56,0-2.83,1.27-2.83,2.83v2.09l-3.6,2.8c-.2.16-.32.4-.32.65v17.22c0,.46.37.83.83.83h28.63c.46,0,.83-.37.83-.83v-17.22c0-.26-.12-.5-.32-.65ZM38.22,25.24l1.97,1.52-1.97,1.51v-3.04ZM27,16.55l1.87,1.45h-3.78l1.9-1.45ZM17.44,20.84c0-.65.53-1.18,1.18-1.18h16.77c.65,0,1.18.53,1.18,1.18v8.71l-7.72,5.94-1.58-.93c-.08-.05-.17-.07-.26-.07-.09,0-.18.02-.26.07l-1.58.93-7.72-5.97v-8.68ZM15.78,25.1v3.13l-2.04-1.58,2.04-1.55ZM13.7,27.92l10.52,8.12-10.52,6.17v-14.29ZM27,42.59h-11.94l11.94-7.01,11.94,7.01h-11.94ZM40.3,42.21l-10.52-6.17,10.52-8.12v14.29Z"/>
  <path class="cls-1" d="M29.54,33.09c.6-.13,1.14-.32,1.63-.57.48-.25.91-.55,1.27-.92.36-.36.65-.64.88-1.24h-1.38c-.39.6-.86.86-1.41,1.13-.56.27-1.23.45-2.03.55-1.01.1-1.91.07-2.71-.11-.8-.18-1.48-.47-2.05-.89-.56-.42-1-.93-1.29-1.55-.3-.62-.44-1.3-.44-2.04,0-.56.07-1.11.21-1.64.14-.54.34-1.03.6-1.47.3-.51.67-.93,1.12-1.28.45-.34.96-.61,1.55-.79.59-.18,1.24-.28,1.94-.28s1.31.1,1.86.29c.55.19,1.01.45,1.38.79.37.34.66.74.85,1.19.2.46.3.95.3,1.47,0,.62-.14,1.2-.41,1.72-.27.53-.6.94-.97,1.25-.37.3-.67.46-.91.46-.07,0-.13-.03-.18-.08-.05-.06-.07-.13-.07-.23s.03-.3.09-.59l.99-4.66h-1.71l-.16.73c-.36-.58-.93-.87-1.71-.87-.68,0-1.29.21-1.83.63-.54.42-.95.96-1.25,1.62-.29.66-.44,1.33-.44,2.01s.14,1.2.43,1.65c.28.45.65.76,1.11.95s.93.23,1.42.14c.49-.1.92-.33,1.3-.7.06.26.19.45.39.57.19.12.47.18.82.18.61,0,1.17-.13,1.69-.39.52-.26.98-.61,1.37-1.05.39-.44.68-.94.89-1.5.21-.56.31-1.12.31-1.7,0-.74-.13-1.42-.39-2.04-.26-.62-.63-1.15-1.12-1.6-.49-.45-1.08-.79-1.76-1.04s-1.44-.36-2.26-.36c-1,0-1.92.17-2.75.5-.83.33-1.54.79-2.12,1.39-.58.59-1.02,1.29-1.33,2.09-.31.8-.46,1.66-.46,2.58s.15,1.69.45,2.42c.3.73.74,1.36,1.32,1.88.58.53,1.3.93,2.15,1.21.85.28,1.81.42,2.87.42.71,0,1.36-.06,1.97-.19ZM27.87,27.59c-.16.5-.39.91-.7,1.23-.31.32-.67.49-1.07.49-.35,0-.63-.14-.85-.42-.22-.28-.32-.67-.32-1.19s.08-1,.25-1.47c.16-.47.4-.86.7-1.16.3-.3.65-.44,1.03-.44.19,0,.36.04.51.11.15.07.28.18.38.31.11.14.19.3.24.48.05.18.08.39.08.62,0,.46-.08.94-.24,1.44Z"/>
</svg>