<?xml version="1.0" encoding="UTF-8"?>
<svg id="Calque_1" data-name="Calque 1" xmlns="http://www.w3.org/2000/svg" version="1.1" viewBox="0 0 87.11 22.46">
  <defs>
    <style>
      .cls-1 {
        fill: #0f71b6;
      }

      .cls-1, .cls-2 {
        stroke-width: 0px;
      }

      .cls-2 {
        fill: #ed8c1a;
      }
    </style>
  </defs>
  <polygon class="cls-1" points="7.99 8.89 7.99 6.98 .98 6.98 .98 16.54 7.99 16.54 7.99 14.63 3.53 14.63 3.53 12.51 7.36 12.51 7.36 10.81 3.53 10.81 3.53 8.89 7.99 8.89"/>
  <circle class="cls-2" cx="10.73" cy="15.43" r="1.35"/>
  <polygon class="cls-1" points="15.86 14.63 15.86 6.98 13.31 6.98 13.31 16.54 19.68 16.54 19.68 14.63 15.86 14.63"/>
  <rect class="cls-1" x="38.38" y="6.98" width="2.34" height="9.56"/>
  <path class="cls-1" d="M76.39,20.98c-5.37,0-9.74-4.37-9.74-9.74s4.37-9.74,9.74-9.74,9.74,4.37,9.74,9.74c0,5.37-4.37,9.74-9.74,9.74ZM76.39,3.55c-4.24,0-7.68,3.45-7.68,7.68s3.45,7.68,7.68,7.68,7.68-3.45,7.68-7.68-3.45-7.68-7.68-7.68Z"/>
  <path class="cls-1" d="M53.68,9.99v-1.09h-2.34v7.65h2.34v-3.8c0-.76.43-2.3,2.34-1.87v-1.99s-1.28-.34-2.34,1.1Z"/>
  <path class="cls-1" d="M78.45,13.78s-.39,1.06-1.96,1.06h-1.35v-5.72c0-.45.39-.87.84-.87h.01v-1.28h-4.04v1.28h-.01c.45,0,.86.42.86.87v4.85c0,.45-.41.87-.86.87h.01v1.91h7.44v-2.98h-.95Z"/>
  <path class="cls-2" d="M77.38,5.11c-1.18,0-2.28.38-3.16,1.02h2.63v2.7c-.64.1-.85.53-.85,1.05v4.11h.74c.69,0,1.24-.43,1.28-1.06h2.23v1.96c1.49-.95,2.42-2.59,2.42-4.45,0-2.93-2.35-5.32-5.29-5.32Z"/>
  <path class="cls-1" d="M24.11,15.17c-1.37,0-1.71-.54-1.75-2.03h5.58c0-3.4-.45-4.29-3.83-4.29s-3.79,1.19-3.79,3.94c0,2.97.64,3.92,3.79,3.92,2.35,0,3.83-.17,3.83-2.51h-2.11c-.17.85-.8.96-1.72.96ZM24.11,10.45c1.21,0,1.61.36,1.73,1.42h-3.43c.11-1.06.51-1.42,1.71-1.42Z"/>
  <path class="cls-1" d="M46.06,15.17c-1.37,0-1.71-.54-1.75-2.03h5.58c0-3.4-.45-4.29-3.83-4.29s-3.79,1.19-3.79,3.94c0,2.97.64,3.92,3.79,3.92,2.35,0,3.83-.17,3.83-2.51h-2.11c-.17.85-.8.96-1.72.96ZM46.06,10.45c1.21,0,1.61.36,1.73,1.42h-3.43c.11-1.06.51-1.42,1.71-1.42Z"/>
  <path class="cls-1" d="M61.97,13.78c-.04.43-.16.75-.35.93-.26.25-.67.27-1.27.27-1.31,0-1.62-.52-1.62-2.25,0-1.49.23-2.24,1.62-2.24.85,0,1.46.09,1.61,1.15h2.15c-.05-2.55-1.57-2.83-3.77-2.83-3.19,0-3.73,1.32-3.73,3.91,0,3.02.71,3.9,3.73,3.9,1.38,0,2.32-.04,2.91-.47.58-.4.83-1.11.86-2.39h-2.14Z"/>
  <path class="cls-1" d="M34.8,13.78c-.04.43-.15.75-.35.93-.26.25-.67.27-1.27.27-1.31,0-1.62-.52-1.62-2.25,0-1.49.23-2.24,1.62-2.24.85,0,1.46.09,1.61,1.15h2.15c-.05-2.55-1.57-2.83-3.77-2.83-3.19,0-3.73,1.32-3.73,3.91,0,3.02.71,3.9,3.73,3.9,1.38,0,2.32-.04,2.91-.47.58-.4.83-1.11.86-2.39h-2.14Z"/>
</svg>