<?xml version="1.0" encoding="UTF-8"?>
<svg id="Calque_1" data-name="Calque 1" xmlns="http://www.w3.org/2000/svg" version="1.1" viewBox="0 0 54 59">
  <defs>
    <style>
      .cls-1 {
        fill: #7984ba;
        fill-rule: evenodd;
        stroke-width: 0px;
      }
    </style>
  </defs>
  <path class="cls-1" d="M45.29,40.38c-.16-.13-.34-.23-.52-.33-1.06-.57-2.11-1.14-3.17-1.7-.43-.23-.85-.46-1.27-.69-.22-.12-.43-.24-.61-.43,0-.06,0-.07,0-.08,0-.04.01-.09.02-.13.26-1.17.18-2.32-.2-3.46-.2-.6-.46-1.14-.78-1.63.13-.79.19-1.6.19-2.42,0-8.49-6.9-15.39-15.39-15.39s-15.39,6.9-15.39,15.39,6.9,15.39,15.39,15.39c3.27,0,6.31-1.03,8.8-2.78.4.06.82.08,1.25.05.8-.04,1.57-.2,2.31-.5.88-.35,1.66-.86,2.26-1.61.03-.03.06-.05.11-.09.09.04.19.08.28.13.45.24.91.48,1.36.72,1.07.58,2.13,1.17,3.2,1.75.27.14.55.29.84.37.68.21,1.39-.11,1.71-.73.32-.61.17-1.38-.38-1.83ZM20.61,16.83c-1.12,1.28-2.45,3.02-3.53,5.12-1.05-.68-1.88-1.4-2.43-1.92,1.64-1.55,3.69-2.67,5.96-3.2ZM13.66,21.24c.64.61,1.59,1.52,2.81,2.29-.79,1.85-1.34,4.01-1.41,6.27h-4.51c0-3.16,1.18-6.29,3.11-8.56ZM10.63,31.15h4.46c.13,2.26.61,3.57,1.45,5.36-.85.54-1.69,1.26-2.52,2.01-1.85-2-3.08-4.2-3.38-7.36ZM15.04,39.32c.71-.64,1.43-1.19,2.16-1.66.88,1.55,2.04,3.06,3.47,4.52-2.12-.48-4.04-1.48-5.63-2.86ZM22.93,42.19c-1.81-1.7-3.26-3.45-4.28-5.25,1.41-.72,2.93-1.14,4.28-1.24v6.5ZM22.93,34.26c-1.81.11-3.43.71-5.04,1.53-.71-1.56-1.24-2.83-1.36-4.64h6.4v3.1ZM22.93,29.8h-6.43c.06-2.26.65-3.96,1.34-5.62,1.43.74,3.28,1.16,5.09,1.33v4.3ZM22.93,24.06c-1.81-.17-3.12-.71-4.38-1.37,1.37-2.7,3.03-4.81,4.38-6v7.37ZM36.56,29.8h-.58c-1.38-.9-2.79-.9-4.19-.53,0-.02,0-.1,0-.14,0-1.92-.35-3.86-1.07-5.69.95-.61,1.89-1.21,2.81-2.08,1.89,2.25,3.03,5.28,3.04,8.44ZM32.55,20.12c-.8.75-1.61,1.4-2.42,1.94-.89-1.8-2.15-3.56-3.76-5.25,2.37.52,4.49,1.69,6.18,3.31ZM24.28,16.62c1.81,1.98,3.7,4.04,4.73,6.16-1.55.81-3.38,1.26-4.73,1.32v-7.48ZM24.28,25.54c1.81-.06,3.51-.51,5.24-1.4.6,1.6.88,3.36.87,5.02,0,.16-.05.19-.06.64h-6.05v-4.26ZM24.28,31.15h4.41c-.87.45-1.46,1.87-1.72,3.19-.04.19.01.32,0,.5-.97-.28-2.22-.53-2.68-.59v-3.1ZM24.28,35.69c.9.07,1.76.27,2.65.56.06.65.26,1.27.52,1.86-1.17,1.76-2.71,3.16-3.16,4.06v-6.48ZM26.03,42.27c.66-.74,1.41-1.67,2.14-2.74.27.35.58.68.93,1.01.17.16.35.31.54.44-1.12.6-2.33,1.04-3.61,1.29ZM35.03,40.98c-3.01.92-6.19-.77-7.11-3.77-.92-3.01.77-6.19,3.77-7.11,3-.92,6.19.77,7.11,3.77.92,3-.77,6.19-3.77,7.11Z"/>
</svg>