<?xml version="1.0" encoding="UTF-8"?>
<svg id="Calque_1" data-name="Calque 1" xmlns="http://www.w3.org/2000/svg" version="1.1" viewBox="0 0 54 59">
  <defs>
    <style>
      .cls-1 {
        fill: #7984ba;
        stroke-width: 0px;
      }
    </style>
  </defs>
  <path class="cls-1" d="M29.3,23.2c-.7-.3-1.5-.5-2.4-.5s-1.8.2-2.5.6c-.7.4-1.3.9-1.6,1.5-.4.6-.6,1.2-.6,1.8s.1.5.4.8c.2.2.5.4.9.4.6,0,1-.3,1.2-1,.2-.7.5-1.2.8-1.5.3-.3.8-.5,1.5-.5s1,.2,1.4.5c.4.3.5.8.5,1.2s0,.5-.2.7c-.1.2-.3.4-.4.6-.2.2-.5.4-.9.8-.4.4-.8.7-1.1,1-.3.3-.5.6-.6,1-.2.4-.2.8-.2,1.3s.1.7.3.9c.2.2.5.3.8.3.6,0,1-.3,1.1-1,0-.3.1-.5.2-.6,0-.1,0-.2.1-.4,0-.1.2-.3.3-.4s.3-.3.5-.5c.8-.7,1.3-1.2,1.6-1.4.3-.3.5-.6.8-1,.2-.4.3-.8.3-1.4s-.2-1.3-.6-1.8c-.4-.6-.9-1-1.6-1.3Z"/>
  <path class="cls-1" d="M26.7,33.9c-.4,0-.7.1-1,.4-.3.3-.4.6-.4,1s.1.8.4,1c.3.2.6.4,1,.4s.7-.1,1-.4c.3-.2.4-.6.4-1s-.1-.7-.4-1c-.3-.3-.6-.4-1-.4Z"/>
  <path class="cls-1" d="M27,18.5c-6.1,0-11,5-11,11s5,11,11,11,11-5,11-11-5-11-11-11ZM27,38.8c-5.1,0-9.3-4.2-9.3-9.3s4.2-9.3,9.3-9.3,9.3,4.2,9.3,9.3-4.2,9.3-9.3,9.3Z"/>
</svg>