<?xml version="1.0" encoding="utf-8"?>
<!-- Generator: Adobe Illustrator 27.0.1, SVG Export Plug-In . SVG Version: 6.00 Build 0)  -->
<svg version="1.1" xmlns="http://www.w3.org/2000/svg" xmlns:xlink="http://www.w3.org/1999/xlink" x="0px" y="0px"
	 viewBox="0 0 200 200" style="enable-background:new 0 0 200 200;" xml:space="preserve">
<style type="text/css">
	.st0{display:none;}
	.st1{display:inline;}
	.st2{fill:#7984BA;}
	.st3{fill-rule:evenodd;clip-rule:evenodd;}
	.st4{fill-rule:evenodd;clip-rule:evenodd;fill:#7984BA;}
</style>
<g id="Calque_1" class="st0">
	<g class="st1">
		<path d="M82.24,93.53c0.32,0.4,0.49,1.06,0.49,1.98v0.53v3.88c0,0.46-0.05,0.9-0.14,1.3c-0.09,0.4-0.21,0.71-0.35,0.92
			c-0.24,0.29-0.58,0.5-1.02,0.6c-0.44,0.12-1.09,0.18-1.95,0.2c-0.88-0.03-1.54-0.08-1.97-0.17c-0.42-0.08-0.75-0.3-0.98-0.64
			c-0.27-0.45-0.41-1.27-0.41-2.48v-3.47c0-0.18-0.01-0.33-0.04-0.45c0.05-0.88,0.18-1.53,0.37-1.95c0.17-0.37,0.49-0.63,0.98-0.76
			c0.49-0.13,1.19-0.2,2.1-0.2c0.5,0,0.95,0.02,1.38,0.04C81.41,92.98,81.92,93.2,82.24,93.53z M95.26,93.13
			c-0.33-0.11-0.81-0.16-1.43-0.16h-3.63v5.11h3.55c1.04,0,1.69-0.13,1.97-0.39c0.26-0.22,0.42-0.45,0.47-0.7
			c0.05-0.25,0.09-0.7,0.12-1.35c0-0.93-0.1-1.58-0.31-1.95C95.83,93.42,95.59,93.24,95.26,93.13z M135.02,85.76v21.74
			c0,4.21-3.4,7.61-7.61,7.61H72.35c-4.2,0-7.61-3.4-7.61-7.61V85.76c0-4.2,3.4-7.61,7.61-7.61h8.75L91.3,64.28
			c-0.29-0.88-0.48-1.81-0.48-2.79c0-5,4.06-9.06,9.06-9.06s9.06,4.06,9.06,9.06c0,0.98-0.2,1.9-0.49,2.79l10.21,13.88h8.74
			C131.61,78.16,135.02,81.56,135.02,85.76z M85.55,95.64c0-1.12-0.12-1.97-0.34-2.55c-0.23-0.58-0.42-0.95-0.58-1.12
			c-0.29-0.44-0.73-0.77-1.33-1c-0.59-0.23-1.22-0.37-1.88-0.43c-0.66-0.06-1.37-0.09-2.13-0.09c-0.8,0-1.52,0.03-2.14,0.08
			c-0.63,0.05-1.23,0.19-1.82,0.41c-0.59,0.22-1.04,0.55-1.36,0.99c-0.34,0.5-0.57,1.07-0.68,1.73c-0.11,0.66-0.17,1.42-0.17,2.26v4
			c0,2,0.37,3.37,1.11,4.12c0.48,0.52,1.1,0.86,1.86,1.03c0.77,0.16,1.7,0.24,2.82,0.24c0.91,0,1.7-0.03,2.35-0.08
			c0.65-0.05,1.29-0.19,1.9-0.41c0.62-0.23,1.09-0.57,1.43-1.03c0.31-0.44,0.54-0.9,0.71-1.39c0.17-0.48,0.25-1.16,0.25-2.04V95.64
			L85.55,95.64z M86.49,78.16h26.77l-7.33-9.97c-1.6,1.45-3.72,2.36-6.05,2.36c-2.34,0-4.45-0.91-6.05-2.36L86.49,78.16z
			 M99.07,95.52c0-1.32-0.17-2.38-0.53-3.2c-0.39-0.74-0.99-1.22-1.81-1.43c-0.82-0.22-1.8-0.32-2.95-0.32h-6.4v14.63h2.81v-4.72
			h4.28c0.76,0,1.49-0.1,2.19-0.3c0.7-0.2,1.2-0.48,1.5-0.86C98.77,98.59,99.07,97.32,99.07,95.52z M110.85,102.8h-7.28v-3.88h6.87
			v-2.28h-6.87v-3.67h7.24v-2.4h-10.04v14.63h10.09V102.8L110.85,102.8z M126.63,90.57h-2.83l0.23,12.23h-0.07l-6.28-12.23h-4.67
			v14.63h2.83l-0.08-6.17l-0.15-6.07h0.12l6.2,12.23h4.7L126.63,90.57L126.63,90.57L126.63,90.57z"/>
	</g>
</g>
<g id="Calque_2" class="st0">
	<g class="st1">
		<path class="st2" d="M82.24,93.53c0.32,0.4,0.49,1.06,0.49,1.98v0.53v3.88c0,0.46-0.05,0.9-0.14,1.3
			c-0.09,0.4-0.21,0.71-0.35,0.92c-0.24,0.29-0.58,0.5-1.02,0.6c-0.44,0.12-1.09,0.18-1.95,0.2c-0.88-0.03-1.54-0.08-1.97-0.17
			c-0.42-0.08-0.75-0.3-0.98-0.64c-0.27-0.45-0.41-1.27-0.41-2.48v-3.47c0-0.18-0.01-0.33-0.04-0.45c0.05-0.88,0.18-1.53,0.37-1.95
			c0.17-0.37,0.49-0.63,0.98-0.76c0.49-0.13,1.19-0.2,2.1-0.2c0.5,0,0.95,0.02,1.38,0.04C81.41,92.98,81.92,93.2,82.24,93.53z
			 M95.26,93.13c-0.33-0.11-0.81-0.16-1.43-0.16h-3.63v5.11h3.55c1.04,0,1.69-0.13,1.97-0.39c0.26-0.22,0.42-0.45,0.47-0.7
			c0.05-0.25,0.09-0.7,0.12-1.35c0-0.93-0.1-1.58-0.31-1.95C95.83,93.42,95.59,93.24,95.26,93.13z M135.02,85.76v21.74
			c0,4.21-3.4,7.61-7.61,7.61H72.35c-4.2,0-7.61-3.4-7.61-7.61V85.76c0-4.2,3.4-7.61,7.61-7.61h8.75L91.3,64.28
			c-0.29-0.88-0.48-1.81-0.48-2.79c0-5,4.06-9.06,9.06-9.06s9.06,4.06,9.06,9.06c0,0.98-0.2,1.9-0.49,2.79l10.21,13.88h8.74
			C131.61,78.16,135.02,81.56,135.02,85.76z M85.55,95.64c0-1.12-0.12-1.97-0.34-2.55c-0.23-0.58-0.42-0.95-0.58-1.12
			c-0.29-0.44-0.73-0.77-1.33-1c-0.59-0.23-1.22-0.37-1.88-0.43c-0.66-0.06-1.37-0.09-2.13-0.09c-0.8,0-1.52,0.03-2.14,0.08
			c-0.63,0.05-1.23,0.19-1.82,0.41c-0.59,0.22-1.04,0.55-1.36,0.99c-0.34,0.5-0.57,1.07-0.68,1.73c-0.11,0.66-0.17,1.42-0.17,2.26v4
			c0,2,0.37,3.37,1.11,4.12c0.48,0.52,1.1,0.86,1.86,1.03c0.77,0.16,1.7,0.24,2.82,0.24c0.91,0,1.7-0.03,2.35-0.08
			c0.65-0.05,1.29-0.19,1.9-0.41c0.62-0.23,1.09-0.57,1.43-1.03c0.31-0.44,0.54-0.9,0.71-1.39c0.17-0.48,0.25-1.16,0.25-2.04V95.64
			L85.55,95.64z M86.49,78.16h26.77l-7.33-9.97c-1.6,1.45-3.72,2.36-6.05,2.36c-2.34,0-4.45-0.91-6.05-2.36L86.49,78.16z
			 M99.07,95.52c0-1.32-0.17-2.38-0.53-3.2c-0.39-0.74-0.99-1.22-1.81-1.43c-0.82-0.22-1.8-0.32-2.95-0.32h-6.4v14.63h2.81v-4.72
			h4.28c0.76,0,1.49-0.1,2.19-0.3c0.7-0.2,1.2-0.48,1.5-0.86C98.77,98.59,99.07,97.32,99.07,95.52z M110.85,102.8h-7.28v-3.88h6.87
			v-2.28h-6.87v-3.67h7.24v-2.4h-10.04v14.63h10.09V102.8L110.85,102.8z M126.63,90.57h-2.83l0.23,12.23h-0.07l-6.28-12.23h-4.67
			v14.63h2.83l-0.08-6.17l-0.15-6.07h0.12l6.2,12.23h4.7L126.63,90.57L126.63,90.57L126.63,90.57z"/>
	</g>
</g>
<g id="Calque_3" class="st0">
	<g class="st1">
		<path class="st3" d="M128.55,69.36h-55.1c-3.85,0-5.52,1.56-5.52,4.77v32.86c0,3.47,2.05,5.86,5.52,5.86h44.37l8.1,9.94v-9.94
			h2.62c3.21,0,5.11-2.02,5.11-5.86V74.13C133.66,70.65,132.03,69.36,128.55,69.36z M130.76,106.99c0,2.7-1.01,2.96-2.21,2.96h-5.52
			v4.43l-3.79-4.43H73.45c-1.87,0-2.62-1.09-2.62-2.96V74.13c0-1.2-0.08-1.87,2.62-1.87h55.1c1.86,0,2.21,0.01,2.21,1.87V106.99z"/>
		<path class="st3" d="M123.23,79.99H75.87c-0.8,0-1.45,0.65-1.45,1.45c0,0.8,0.65,1.45,1.45,1.45h47.36c0.8,0,1.45-0.65,1.45-1.45
			C124.68,80.64,124.03,79.99,123.23,79.99z"/>
		<path class="st3" d="M123.23,85.79H75.87c-0.8,0-1.45,0.65-1.45,1.45c0,0.8,0.65,1.45,1.45,1.45h47.36c0.8,0,1.45-0.65,1.45-1.45
			C124.68,86.44,124.03,85.79,123.23,85.79z"/>
		<path class="st3" d="M123.23,91.59H75.87c-0.8,0-1.45,0.65-1.45,1.45s0.65,1.45,1.45,1.45h47.36c0.8,0,1.45-0.65,1.45-1.45
			S124.03,91.59,123.23,91.59z"/>
		<path class="st3" d="M108.53,98.7c0-0.72-0.58-1.3-1.3-1.3H76c-0.72,0-1.3,0.58-1.3,1.3v0.29c0,0.72,0.58,1.3,1.3,1.3h31.22
			c0.72,0,1.3-0.58,1.3-1.3V98.7z"/>
	</g>
</g>
<g id="Calque_4" class="st0">
	<g class="st1">
		<path class="st4" d="M128.55,69.36h-55.1c-3.85,0-5.52,1.56-5.52,4.77v32.86c0,3.47,2.05,5.86,5.52,5.86h44.37l8.1,9.94v-9.94
			h2.62c3.21,0,5.11-2.02,5.11-5.86V74.13C133.66,70.65,132.03,69.36,128.55,69.36z M130.76,106.99c0,2.7-1.01,2.96-2.21,2.96h-5.52
			v4.43l-3.79-4.43H73.45c-1.87,0-2.62-1.09-2.62-2.96V74.13c0-1.2-0.08-1.87,2.62-1.87h55.1c1.86,0,2.21,0.01,2.21,1.87V106.99z"/>
		<path class="st4" d="M123.23,79.99H75.87c-0.8,0-1.45,0.65-1.45,1.45c0,0.8,0.65,1.45,1.45,1.45h47.36c0.8,0,1.45-0.65,1.45-1.45
			C124.68,80.64,124.03,79.99,123.23,79.99z"/>
		<path class="st4" d="M123.23,85.79H75.87c-0.8,0-1.45,0.65-1.45,1.45c0,0.8,0.65,1.45,1.45,1.45h47.36c0.8,0,1.45-0.65,1.45-1.45
			C124.68,86.44,124.03,85.79,123.23,85.79z"/>
		<path class="st4" d="M123.23,91.59H75.87c-0.8,0-1.45,0.65-1.45,1.45s0.65,1.45,1.45,1.45h47.36c0.8,0,1.45-0.65,1.45-1.45
			S124.03,91.59,123.23,91.59z"/>
		<path class="st4" d="M108.53,98.7c0-0.72-0.58-1.3-1.3-1.3H76c-0.72,0-1.3,0.58-1.3,1.3v0.29c0,0.72,0.58,1.3,1.3,1.3h31.22
			c0.72,0,1.3-0.58,1.3-1.3V98.7z"/>
	</g>
</g>
<g id="Calque_5">
	<g>
		<polygon points="87.28,65.8 120.46,65.8 114.61,53.16 		"/>
		<polygon points="126.71,101.78 135.27,97.82 126.71,79.32 		"/>
		<polygon points="72.59,72.6 69.95,73.82 72.59,79.52 		"/>
		<path d="M75.35,117.47h49.21V68.26H75.35V117.47z M89.86,97.77c1.54-0.61,3.1-0.71,4.33-0.36v-8.14c0-0.02-0.01-0.04-0.01-0.06
			v-5.48c0-0.42,0.34-0.76,0.76-0.76l13.67-2.53c0.42,0,0.76,0.34,0.76,0.76v3.98c0.01,0.07,0.02,0.15,0.02,0.22v14.67
			c0,0.2-0.05,0.4-0.14,0.57c-0.43,1.45-1.84,2.89-3.81,3.67c-2.85,1.14-5.78,0.49-6.56-1.45c-0.77-1.94,0.91-4.43,3.75-5.56
			c1.53-0.61,3.09-0.7,4.33-0.36v-9.2L96.6,89.66v10.88c0,0.21-0.05,0.4-0.14,0.57c-0.43,1.45-1.84,2.89-3.81,3.67
			c-2.85,1.14-5.78,0.49-6.55-1.45C85.33,101.4,87.01,98.9,89.86,97.77z"/>
	</g>
</g>
</svg>
