<?xml version="1.0" encoding="utf-8"?>
<!-- Generator: Adobe Illustrator 27.0.1, SVG Export Plug-In . SVG Version: 6.00 Build 0)  -->
<svg version="1.1" xmlns="http://www.w3.org/2000/svg" xmlns:xlink="http://www.w3.org/1999/xlink" x="0px" y="0px"
	 viewBox="0 0 200 200" style="enable-background:new 0 0 200 200;" xml:space="preserve">
<style type="text/css">
	.st0{display:none;}
	.st1{display:inline;}
	.st2{fill:#7984BA;}
	.st3{fill-rule:evenodd;clip-rule:evenodd;}
	.st4{fill-rule:evenodd;clip-rule:evenodd;fill:#7984BA;}
	.st5{display:inline;fill:none;stroke:#000000;stroke-miterlimit:10;}
	.st6{display:inline;fill:none;stroke:#7984BA;stroke-miterlimit:10;}
</style>
<g id="Calque_1" class="st0">
	<g class="st1">
		<path d="M82.24,93.53c0.32,0.4,0.49,1.06,0.49,1.98v0.53v3.88c0,0.46-0.05,0.9-0.14,1.3c-0.09,0.4-0.21,0.71-0.35,0.92
			c-0.24,0.29-0.58,0.5-1.02,0.6c-0.44,0.12-1.09,0.18-1.95,0.2c-0.88-0.03-1.54-0.08-1.97-0.17c-0.42-0.08-0.75-0.3-0.98-0.64
			c-0.27-0.45-0.41-1.27-0.41-2.48v-3.47c0-0.18-0.01-0.33-0.04-0.45c0.05-0.88,0.18-1.53,0.37-1.95c0.17-0.37,0.49-0.63,0.98-0.76
			c0.49-0.13,1.19-0.2,2.1-0.2c0.5,0,0.95,0.02,1.38,0.04C81.41,92.98,81.92,93.2,82.24,93.53z M95.26,93.13
			c-0.33-0.11-0.81-0.16-1.43-0.16h-3.63v5.11h3.55c1.04,0,1.69-0.13,1.97-0.39c0.26-0.22,0.42-0.45,0.47-0.7
			c0.05-0.25,0.09-0.7,0.12-1.35c0-0.93-0.1-1.58-0.31-1.95C95.83,93.42,95.59,93.24,95.26,93.13z M135.02,85.76v21.74
			c0,4.21-3.4,7.61-7.61,7.61H72.35c-4.2,0-7.61-3.4-7.61-7.61V85.76c0-4.2,3.4-7.61,7.61-7.61h8.75L91.3,64.28
			c-0.29-0.88-0.48-1.81-0.48-2.79c0-5,4.06-9.06,9.06-9.06s9.06,4.06,9.06,9.06c0,0.98-0.2,1.9-0.49,2.79l10.21,13.88h8.74
			C131.61,78.16,135.02,81.56,135.02,85.76z M85.55,95.64c0-1.12-0.12-1.97-0.34-2.55c-0.23-0.58-0.42-0.95-0.58-1.12
			c-0.29-0.44-0.73-0.77-1.33-1c-0.59-0.23-1.22-0.37-1.88-0.43c-0.66-0.06-1.37-0.09-2.13-0.09c-0.8,0-1.52,0.03-2.14,0.08
			c-0.63,0.05-1.23,0.19-1.82,0.41c-0.59,0.22-1.04,0.55-1.36,0.99c-0.34,0.5-0.57,1.07-0.68,1.73c-0.11,0.66-0.17,1.42-0.17,2.26v4
			c0,2,0.37,3.37,1.11,4.12c0.48,0.52,1.1,0.86,1.86,1.03c0.77,0.16,1.7,0.24,2.82,0.24c0.91,0,1.7-0.03,2.35-0.08
			c0.65-0.05,1.29-0.19,1.9-0.41c0.62-0.23,1.09-0.57,1.43-1.03c0.31-0.44,0.54-0.9,0.71-1.39c0.17-0.48,0.25-1.16,0.25-2.04V95.64
			L85.55,95.64z M86.49,78.16h26.77l-7.33-9.97c-1.6,1.45-3.72,2.36-6.05,2.36c-2.34,0-4.45-0.91-6.05-2.36L86.49,78.16z
			 M99.07,95.52c0-1.32-0.17-2.38-0.53-3.2c-0.39-0.74-0.99-1.22-1.81-1.43c-0.82-0.22-1.8-0.32-2.95-0.32h-6.4v14.63h2.81v-4.72
			h4.28c0.76,0,1.49-0.1,2.19-0.3c0.7-0.2,1.2-0.48,1.5-0.86C98.77,98.59,99.07,97.32,99.07,95.52z M110.85,102.8h-7.28v-3.88h6.87
			v-2.28h-6.87v-3.67h7.24v-2.4h-10.04v14.63h10.09V102.8L110.85,102.8z M126.63,90.57h-2.83l0.23,12.23h-0.07l-6.28-12.23h-4.67
			v14.63h2.83l-0.08-6.17l-0.15-6.07h0.12l6.2,12.23h4.7L126.63,90.57L126.63,90.57L126.63,90.57z"/>
	</g>
</g>
<g id="Calque_2" class="st0">
	<g class="st1">
		<path class="st2" d="M82.24,93.53c0.32,0.4,0.49,1.06,0.49,1.98v0.53v3.88c0,0.46-0.05,0.9-0.14,1.3
			c-0.09,0.4-0.21,0.71-0.35,0.92c-0.24,0.29-0.58,0.5-1.02,0.6c-0.44,0.12-1.09,0.18-1.95,0.2c-0.88-0.03-1.54-0.08-1.97-0.17
			c-0.42-0.08-0.75-0.3-0.98-0.64c-0.27-0.45-0.41-1.27-0.41-2.48v-3.47c0-0.18-0.01-0.33-0.04-0.45c0.05-0.88,0.18-1.53,0.37-1.95
			c0.17-0.37,0.49-0.63,0.98-0.76c0.49-0.13,1.19-0.2,2.1-0.2c0.5,0,0.95,0.02,1.38,0.04C81.41,92.98,81.92,93.2,82.24,93.53z
			 M95.26,93.13c-0.33-0.11-0.81-0.16-1.43-0.16h-3.63v5.11h3.55c1.04,0,1.69-0.13,1.97-0.39c0.26-0.22,0.42-0.45,0.47-0.7
			c0.05-0.25,0.09-0.7,0.12-1.35c0-0.93-0.1-1.58-0.31-1.95C95.83,93.42,95.59,93.24,95.26,93.13z M135.02,85.76v21.74
			c0,4.21-3.4,7.61-7.61,7.61H72.35c-4.2,0-7.61-3.4-7.61-7.61V85.76c0-4.2,3.4-7.61,7.61-7.61h8.75L91.3,64.28
			c-0.29-0.88-0.48-1.81-0.48-2.79c0-5,4.06-9.06,9.06-9.06s9.06,4.06,9.06,9.06c0,0.98-0.2,1.9-0.49,2.79l10.21,13.88h8.74
			C131.61,78.16,135.02,81.56,135.02,85.76z M85.55,95.64c0-1.12-0.12-1.97-0.34-2.55c-0.23-0.58-0.42-0.95-0.58-1.12
			c-0.29-0.44-0.73-0.77-1.33-1c-0.59-0.23-1.22-0.37-1.88-0.43c-0.66-0.06-1.37-0.09-2.13-0.09c-0.8,0-1.52,0.03-2.14,0.08
			c-0.63,0.05-1.23,0.19-1.82,0.41c-0.59,0.22-1.04,0.55-1.36,0.99c-0.34,0.5-0.57,1.07-0.68,1.73c-0.11,0.66-0.17,1.42-0.17,2.26v4
			c0,2,0.37,3.37,1.11,4.12c0.48,0.52,1.1,0.86,1.86,1.03c0.77,0.16,1.7,0.24,2.82,0.24c0.91,0,1.7-0.03,2.35-0.08
			c0.65-0.05,1.29-0.19,1.9-0.41c0.62-0.23,1.09-0.57,1.43-1.03c0.31-0.44,0.54-0.9,0.71-1.39c0.17-0.48,0.25-1.16,0.25-2.04V95.64
			L85.55,95.64z M86.49,78.16h26.77l-7.33-9.97c-1.6,1.45-3.72,2.36-6.05,2.36c-2.34,0-4.45-0.91-6.05-2.36L86.49,78.16z
			 M99.07,95.52c0-1.32-0.17-2.38-0.53-3.2c-0.39-0.74-0.99-1.22-1.81-1.43c-0.82-0.22-1.8-0.32-2.95-0.32h-6.4v14.63h2.81v-4.72
			h4.28c0.76,0,1.49-0.1,2.19-0.3c0.7-0.2,1.2-0.48,1.5-0.86C98.77,98.59,99.07,97.32,99.07,95.52z M110.85,102.8h-7.28v-3.88h6.87
			v-2.28h-6.87v-3.67h7.24v-2.4h-10.04v14.63h10.09V102.8L110.85,102.8z M126.63,90.57h-2.83l0.23,12.23h-0.07l-6.28-12.23h-4.67
			v14.63h2.83l-0.08-6.17l-0.15-6.07h0.12l6.2,12.23h4.7L126.63,90.57L126.63,90.57L126.63,90.57z"/>
	</g>
</g>
<g id="Calque_3" class="st0">
	<g class="st1">
		<path class="st3" d="M128.55,69.36h-55.1c-3.85,0-5.52,1.56-5.52,4.77v32.86c0,3.47,2.05,5.86,5.52,5.86h44.37l8.1,9.94v-9.94
			h2.62c3.21,0,5.11-2.02,5.11-5.86V74.13C133.66,70.65,132.03,69.36,128.55,69.36z M130.76,106.99c0,2.7-1.01,2.96-2.21,2.96h-5.52
			v4.43l-3.79-4.43H73.45c-1.87,0-2.62-1.09-2.62-2.96V74.13c0-1.2-0.08-1.87,2.62-1.87h55.1c1.86,0,2.21,0.01,2.21,1.87V106.99z"/>
		<path class="st3" d="M123.23,79.99H75.87c-0.8,0-1.45,0.65-1.45,1.45c0,0.8,0.65,1.45,1.45,1.45h47.36c0.8,0,1.45-0.65,1.45-1.45
			C124.68,80.64,124.03,79.99,123.23,79.99z"/>
		<path class="st3" d="M123.23,85.79H75.87c-0.8,0-1.45,0.65-1.45,1.45c0,0.8,0.65,1.45,1.45,1.45h47.36c0.8,0,1.45-0.65,1.45-1.45
			C124.68,86.44,124.03,85.79,123.23,85.79z"/>
		<path class="st3" d="M123.23,91.59H75.87c-0.8,0-1.45,0.65-1.45,1.45s0.65,1.45,1.45,1.45h47.36c0.8,0,1.45-0.65,1.45-1.45
			S124.03,91.59,123.23,91.59z"/>
		<path class="st3" d="M108.53,98.7c0-0.72-0.58-1.3-1.3-1.3H76c-0.72,0-1.3,0.58-1.3,1.3v0.29c0,0.72,0.58,1.3,1.3,1.3h31.22
			c0.72,0,1.3-0.58,1.3-1.3V98.7z"/>
	</g>
</g>
<g id="Calque_4" class="st0">
	<g class="st1">
		<path class="st4" d="M128.55,69.36h-55.1c-3.85,0-5.52,1.56-5.52,4.77v32.86c0,3.47,2.05,5.86,5.52,5.86h44.37l8.1,9.94v-9.94
			h2.62c3.21,0,5.11-2.02,5.11-5.86V74.13C133.66,70.65,132.03,69.36,128.55,69.36z M130.76,106.99c0,2.7-1.01,2.96-2.21,2.96h-5.52
			v4.43l-3.79-4.43H73.45c-1.87,0-2.62-1.09-2.62-2.96V74.13c0-1.2-0.08-1.87,2.62-1.87h55.1c1.86,0,2.21,0.01,2.21,1.87V106.99z"/>
		<path class="st4" d="M123.23,79.99H75.87c-0.8,0-1.45,0.65-1.45,1.45c0,0.8,0.65,1.45,1.45,1.45h47.36c0.8,0,1.45-0.65,1.45-1.45
			C124.68,80.64,124.03,79.99,123.23,79.99z"/>
		<path class="st4" d="M123.23,85.79H75.87c-0.8,0-1.45,0.65-1.45,1.45c0,0.8,0.65,1.45,1.45,1.45h47.36c0.8,0,1.45-0.65,1.45-1.45
			C124.68,86.44,124.03,85.79,123.23,85.79z"/>
		<path class="st4" d="M123.23,91.59H75.87c-0.8,0-1.45,0.65-1.45,1.45s0.65,1.45,1.45,1.45h47.36c0.8,0,1.45-0.65,1.45-1.45
			S124.03,91.59,123.23,91.59z"/>
		<path class="st4" d="M108.53,98.7c0-0.72-0.58-1.3-1.3-1.3H76c-0.72,0-1.3,0.58-1.3,1.3v0.29c0,0.72,0.58,1.3,1.3,1.3h31.22
			c0.72,0,1.3-0.58,1.3-1.3V98.7z"/>
	</g>
</g>
<g id="Calque_5" class="st0">
	<g class="st1">
		<polygon points="87.28,65.8 120.46,65.8 114.61,53.16 		"/>
		<polygon points="126.71,101.78 135.27,97.82 126.71,79.32 		"/>
		<polygon points="72.59,72.6 69.95,73.82 72.59,79.52 		"/>
		<path d="M75.35,117.47h49.21V68.26H75.35V117.47z M89.86,97.77c1.54-0.61,3.1-0.71,4.33-0.36v-8.14c0-0.02-0.01-0.04-0.01-0.06
			v-5.48c0-0.42,0.34-0.76,0.76-0.76l13.67-2.53c0.42,0,0.76,0.34,0.76,0.76v3.98c0.01,0.07,0.02,0.15,0.02,0.22v14.67
			c0,0.2-0.05,0.4-0.14,0.57c-0.43,1.45-1.84,2.89-3.81,3.67c-2.85,1.14-5.78,0.49-6.56-1.45c-0.77-1.94,0.91-4.43,3.75-5.56
			c1.53-0.61,3.09-0.7,4.33-0.36v-9.2L96.6,89.66v10.88c0,0.21-0.05,0.4-0.14,0.57c-0.43,1.45-1.84,2.89-3.81,3.67
			c-2.85,1.14-5.78,0.49-6.55-1.45C85.33,101.4,87.01,98.9,89.86,97.77z"/>
	</g>
</g>
<g id="Calque_6" class="st0">
	<g class="st1">
		<polygon class="st2" points="87.28,65.8 120.46,65.8 114.61,53.16 		"/>
		<polygon class="st2" points="126.71,101.78 135.27,97.82 126.71,79.32 		"/>
		<polygon class="st2" points="72.59,72.6 69.95,73.82 72.59,79.52 		"/>
		<path class="st2" d="M75.35,117.47h49.21V68.26H75.35V117.47z M89.86,97.77c1.54-0.61,3.1-0.71,4.33-0.36v-8.14
			c0-0.02-0.01-0.04-0.01-0.06v-5.48c0-0.42,0.34-0.76,0.76-0.76l13.67-2.53c0.42,0,0.76,0.34,0.76,0.76v3.98
			c0.01,0.07,0.02,0.15,0.02,0.22v14.67c0,0.2-0.05,0.4-0.14,0.57c-0.43,1.45-1.84,2.89-3.81,3.67c-2.85,1.14-5.78,0.49-6.56-1.45
			c-0.77-1.94,0.91-4.43,3.75-5.56c1.53-0.61,3.09-0.7,4.33-0.36v-9.2L96.6,89.66v10.88c0,0.21-0.05,0.4-0.14,0.57
			c-0.43,1.45-1.84,2.89-3.81,3.67c-2.85,1.14-5.78,0.49-6.55-1.45C85.33,101.4,87.01,98.9,89.86,97.77z"/>
	</g>
</g>
<g id="Calque_7" class="st0">
	<g class="st1">
		<path class="st3" d="M129.66,86.58c-0.4-3.85-1.68-7.47-3.6-10.84c-3.89-6.8-9.69-11.1-17.2-13.16c-1.8-0.49-3.63-0.78-5.5-0.85
			c-7.09-0.28-13.39,1.87-18.87,6.33c-4.96,4.03-8.02,9.27-9.43,15.48c-0.45,1.97-0.71,3.97-0.64,5.98
			c0.2,6.55,2.35,12.39,6.58,17.41c1.66,1.97,3.52,3.64,5.55,5.01l-1.76,1.76c-0.93,0.93-0.93,2.43,0,3.35
			c0.93,0.93,2.43,0.93,3.35,0l2.74-2.74c1.5,0.65,3.06,1.19,4.7,1.61c2.3,0.58,4.65,0.9,7.03,0.82c3.82-0.12,7.45-0.95,10.86-2.51
			l2.83,2.83c0.93,0.93,2.43,0.93,3.35,0c0.93-0.93,0.93-2.43,0-3.35l-1.9-1.9c5.79-3.96,9.47-9.49,11.22-16.42
			c0.44-1.75,0.78-3.53,0.84-5.34l-0.01-0.77C129.78,88.53,129.74,87.31,129.66,86.58z M124.89,90.87
			c-0.19,3.22-1.06,6.24-2.58,9.09c-1.39,2.61-3.27,4.83-5.52,6.75c-2.72,2.32-5.83,3.89-9.32,4.71c-1.78,0.42-3.59,0.61-4.81,0.6
			c-5.9,0.01-10.66-1.56-14.8-4.88c-4.05-3.24-6.82-7.35-8.07-12.43c-0.61-2.47-0.73-4.97-0.55-7.49c0.3-4.09,1.64-7.82,4.05-11.14
			c3.25-4.49,7.51-7.56,12.91-8.97c2.36-0.62,4.76-0.79,7.2-0.67c4.74,0.23,9,1.8,12.73,4.74c4.32,3.41,7.19,7.77,8.35,13.19
			C124.94,86.51,125.02,88.69,124.89,90.87z"/>
		<path class="st3" d="M103.47,85.41c0-3.19,0-6.39,0-9.58c0-0.45-0.11-0.87-0.36-1.25c-0.34-0.51-1.1-0.76-1.66-0.55
			c-0.73,0.28-1.11,0.87-1.11,1.75c0,3.16,0,6.31,0.01,9.47c-1.15,0.42-2.05,1.35-2.44,2.52H86.93c-0.7,0-1.27,0.57-1.27,1.27
			c0,0.7,0.57,1.27,1.27,1.27h11.24c0.68,1.93,2.02,2.45,3.56,2.45c2.23,0,4.04-1.65,4.04-3.88
			C105.76,87.28,104.83,86.06,103.47,85.41z"/>
		<path class="st3" d="M75.35,74.87c1.67-3.38,4.02-6.34,7.1-8.84c2.66-2.16,5.52-3.78,8.56-4.84c-1.87-2.88-5.12-4.79-8.82-4.79
			c-5.8,0-10.51,4.7-10.51,10.51C71.69,70.08,73.11,72.94,75.35,74.87z"/>
		<path class="st3" d="M128.66,74.87c2.24-1.93,3.67-4.78,3.67-7.97c0-5.8-4.7-10.51-10.51-10.51c-3.69,0-6.94,1.91-8.82,4.79
			c3.04,1.06,5.9,2.68,8.56,4.84C124.65,68.52,126.99,71.49,128.66,74.87z"/>
	</g>
</g>
<g id="Calque_8" class="st0">
	<g class="st1">
		<path class="st4" d="M129.66,86.58c-0.4-3.85-1.68-7.47-3.6-10.84c-3.89-6.8-9.69-11.1-17.2-13.16c-1.8-0.49-3.63-0.78-5.5-0.85
			c-7.09-0.28-13.39,1.87-18.87,6.33c-4.96,4.03-8.02,9.27-9.43,15.48c-0.45,1.97-0.71,3.97-0.64,5.98
			c0.2,6.55,2.35,12.39,6.58,17.41c1.66,1.97,3.52,3.64,5.55,5.01l-1.76,1.76c-0.93,0.93-0.93,2.43,0,3.35
			c0.93,0.93,2.43,0.93,3.35,0l2.74-2.74c1.5,0.65,3.06,1.19,4.7,1.61c2.3,0.58,4.65,0.9,7.03,0.82c3.82-0.12,7.45-0.95,10.86-2.51
			l2.83,2.83c0.93,0.93,2.43,0.93,3.35,0c0.93-0.93,0.93-2.43,0-3.35l-1.9-1.9c5.79-3.96,9.47-9.49,11.22-16.42
			c0.44-1.75,0.78-3.53,0.84-5.34l-0.01-0.77C129.78,88.53,129.74,87.31,129.66,86.58z M124.89,90.87
			c-0.19,3.22-1.06,6.24-2.58,9.09c-1.39,2.61-3.27,4.83-5.52,6.75c-2.72,2.32-5.83,3.89-9.32,4.71c-1.78,0.42-3.59,0.61-4.81,0.6
			c-5.9,0.01-10.66-1.56-14.8-4.88c-4.05-3.24-6.82-7.35-8.07-12.43c-0.61-2.47-0.73-4.97-0.55-7.49c0.3-4.09,1.64-7.82,4.05-11.14
			c3.25-4.49,7.51-7.56,12.91-8.97c2.36-0.62,4.76-0.79,7.2-0.67c4.74,0.23,9,1.8,12.73,4.74c4.32,3.41,7.19,7.77,8.35,13.19
			C124.94,86.51,125.02,88.69,124.89,90.87z"/>
		<path class="st4" d="M103.47,85.41c0-3.19,0-6.39,0-9.58c0-0.45-0.11-0.87-0.36-1.25c-0.34-0.51-1.1-0.76-1.66-0.55
			c-0.73,0.28-1.11,0.87-1.11,1.75c0,3.16,0,6.31,0.01,9.47c-1.15,0.42-2.05,1.35-2.44,2.52H86.93c-0.7,0-1.27,0.57-1.27,1.27
			c0,0.7,0.57,1.27,1.27,1.27h11.24c0.68,1.93,2.02,2.45,3.56,2.45c2.23,0,4.04-1.65,4.04-3.88
			C105.76,87.28,104.83,86.06,103.47,85.41z"/>
		<path class="st4" d="M75.35,74.87c1.67-3.38,4.02-6.34,7.1-8.84c2.66-2.16,5.52-3.78,8.56-4.84c-1.87-2.88-5.12-4.79-8.82-4.79
			c-5.8,0-10.51,4.7-10.51,10.51C71.69,70.08,73.11,72.94,75.35,74.87z"/>
		<path class="st4" d="M128.66,74.87c2.24-1.93,3.67-4.78,3.67-7.97c0-5.8-4.7-10.51-10.51-10.51c-3.69,0-6.94,1.91-8.82,4.79
			c3.04,1.06,5.9,2.68,8.56,4.84C124.65,68.52,126.99,71.49,128.66,74.87z"/>
	</g>
</g>
<g id="Calque_9" class="st0">
	<g class="st1">
		<path d="M88.64,88.89c0-8.39,6.63-15.28,15.15-15.28c4.67,0,8.73,1.97,11.3,5.05l-4.96,4.15c-1.58-1.84-3.81-2.95-6.33-2.95
			c-4.75,0-8.39,4.11-8.39,9.03c0,4.84,3.55,9.25,8.6,9.25c3.29,0,6.93-1.84,6.93-4.75h-8.3v-5.44h15.62
			c0,11.17-6.21,16.18-14.08,16.18C95.11,104.12,88.64,97.19,88.64,88.89z"/>
	</g>
	<circle class="st5" cx="103.04" cy="89.23" r="28.77"/>
</g>
<g id="Calque_10" class="st0">
	<g class="st1">
		<path class="st2" d="M88.64,88.89c0-8.39,6.63-15.28,15.15-15.28c4.67,0,8.73,1.97,11.3,5.05l-4.96,4.15
			c-1.58-1.84-3.81-2.95-6.33-2.95c-4.75,0-8.39,4.11-8.39,9.03c0,4.84,3.55,9.25,8.6,9.25c3.29,0,6.93-1.84,6.93-4.75h-8.3v-5.44
			h15.62c0,11.17-6.21,16.18-14.08,16.18C95.11,104.12,88.64,97.19,88.64,88.89z"/>
	</g>
	<circle class="st6" cx="103.04" cy="89.23" r="28.77"/>
</g>
<g id="Calque_12" class="st0">
	<g class="st1">
		<g>
			<path d="M124.09,91.04c0,4.12-4.12,8.24-8.24,8.24h-2.75c-4.12,0-8.24-4.12-8.24-8.24V82.8h-2.75v8.24c0,5.51,5.51,11,11,11v5.51
				h-8.24v2.75h19.26v-2.75h-8.24v-5.51c5.51,0,11-5.51,11-11V82.8h-2.75v8.24H124.09z"/>
			<path d="M115.83,96.54c3.04,0,5.51-2.47,5.51-5.47V71.78c0-3.02-2.45-5.47-5.51-5.47h-2.72c-3.04,0-5.51,2.47-5.51,5.47v19.29
				c0,3.02,2.45,5.47,5.51,5.47L115.83,96.54L115.83,96.54z"/>
		</g>
		<rect x="82.36" y="84.64" width="11.44" height="3.76"/>
		<rect x="77.55" y="95.69" width="16.25" height="3.76"/>
		<polyline points="93.81,110.22 73.64,110.22 73.64,106.46 93.81,106.46 		"/>
	</g>
</g>
<g id="Calque_11" class="st0">
	<g class="st1">
		<g>
			<path class="st2" d="M124.09,91.04c0,4.12-4.12,8.24-8.24,8.24h-2.75c-4.12,0-8.24-4.12-8.24-8.24V82.8h-2.75v8.24
				c0,5.51,5.51,11,11,11v5.51h-8.24v2.75h19.26v-2.75h-8.24v-5.51c5.51,0,11-5.51,11-11V82.8h-2.75v8.24H124.09z"/>
			<path class="st2" d="M115.83,96.54c3.04,0,5.51-2.47,5.51-5.47V71.78c0-3.02-2.45-5.47-5.51-5.47h-2.72
				c-3.04,0-5.51,2.47-5.51,5.47v19.29c0,3.02,2.45,5.47,5.51,5.47L115.83,96.54L115.83,96.54z"/>
		</g>
		<rect x="82.36" y="84.64" class="st2" width="11.44" height="3.76"/>
		<rect x="77.55" y="95.69" class="st2" width="16.25" height="3.76"/>
		<polyline class="st2" points="93.81,110.22 73.64,110.22 73.64,106.46 93.81,106.46 		"/>
	</g>
</g>
<g id="Calque_13" class="st0">
	<g class="st1">
		<g>
			<path d="M118.37,71.92H97.12c-1.79,0-3.2,1.41-3.2,3.2v2.56h-4.99c-1.79,0-3.2,1.41-3.2,3.2v27.4c0,1.79,1.41,3.2,3.2,3.2h27.4
				c1.79,0,3.2-1.41,3.2-3.2v-2.56h4.99c1.79,0,3.2-1.41,3.2-3.2V80.75L118.37,71.92z M99.42,101.88c-0.25,0.26-0.64,0.38-0.9,0.38
				c-0.26,0-0.64-0.13-0.9-0.38c-0.51-0.51-0.51-1.28,0-1.79l8.58-8.58h-5.12c-0.77,0-1.28-0.64-1.28-1.28
				c0-0.77,0.64-1.28,1.28-1.28h8.19c0.13,0,0.38,0,0.51,0.13c0.26,0.13,0.51,0.38,0.64,0.64c0.13,0.13,0.13,0.38,0.13,0.51v8.19
				c0,0.77-0.64,1.28-1.28,1.28c-0.64,0-1.28-0.64-1.28-1.28V93.3L99.42,101.88z M118.88,73.07l7.56,7.17h-4.87
				c-1.41,0-2.69-1.15-2.69-2.69L118.88,73.07L118.88,73.07z M117.48,108.28c0,0.64-0.51,1.02-1.03,1.02H88.92
				c-0.64,0-1.02-0.51-1.02-1.02v-27.4c0-0.64,0.51-1.02,1.02-1.02h4.99v22.66c0,1.79,1.41,3.2,3.2,3.2h20.36V108.28L117.48,108.28z
				"/>
		</g>
	</g>
</g>
<g id="Calque_14" class="st0">
	<g class="st1">
		<g>
			<path class="st2" d="M118.37,71.92H97.12c-1.79,0-3.2,1.41-3.2,3.2v2.56h-4.99c-1.79,0-3.2,1.41-3.2,3.2v27.4
				c0,1.79,1.41,3.2,3.2,3.2h27.4c1.79,0,3.2-1.41,3.2-3.2v-2.56h4.99c1.79,0,3.2-1.41,3.2-3.2V80.75L118.37,71.92z M99.42,101.88
				c-0.25,0.26-0.64,0.38-0.9,0.38c-0.26,0-0.64-0.13-0.9-0.38c-0.51-0.51-0.51-1.28,0-1.79l8.58-8.58h-5.12
				c-0.77,0-1.28-0.64-1.28-1.28c0-0.77,0.64-1.28,1.28-1.28h8.19c0.13,0,0.38,0,0.51,0.13c0.26,0.13,0.51,0.38,0.64,0.64
				c0.13,0.13,0.13,0.38,0.13,0.51v8.19c0,0.77-0.64,1.28-1.28,1.28c-0.64,0-1.28-0.64-1.28-1.28V93.3L99.42,101.88z M118.88,73.07
				l7.56,7.17h-4.87c-1.41,0-2.69-1.15-2.69-2.69L118.88,73.07L118.88,73.07z M117.48,108.28c0,0.64-0.51,1.02-1.03,1.02H88.92
				c-0.64,0-1.02-0.51-1.02-1.02v-27.4c0-0.64,0.51-1.02,1.02-1.02h4.99v22.66c0,1.79,1.41,3.2,3.2,3.2h20.36V108.28L117.48,108.28z
				"/>
		</g>
	</g>
</g>
<g id="Calque_15" class="st0">
	<g class="st1">
		<g>
			<polygon points="116.71,105.54 133.74,89.36 123.12,78.18 			"/>
			<polygon points="110.89,88.29 111.22,89.3 115.46,102.54 120.66,80.33 121.06,78.64 121.43,77.04 121.37,77.02 106.28,73.49 
				106.23,73.72 110.57,87.28 			"/>
			<polygon points="104.82,75.57 104.25,73.8 104.09,73.3 89.28,78.05 89.82,79.75 100.38,90.31 101.18,91.11 101.97,91.9 
				103.79,93.72 104.47,94.4 105.14,95.07 113.81,103.74 113.83,103.69 109.68,90.76 109.36,89.75 109.04,88.74 105.38,77.34 			"/>
			<path d="M87.56,78.84l-0.03,0.03L76.56,89.84l19.4,19.4l0.79,0.79l0.79,0.79l0.34,0.34l0.24,0.24l1.01,1.01l0.22,0.22l0.8,0.8
				l0.68,0.68l0.76,0.76l0.71,0.71l0.71,0.71l1.07,1.07l3.41-3.41l0.08-0.08l0.15-0.15l0.75-0.75l0.38-0.38l0.52-0.52l0.38-0.38
				l0.24-0.24l2.02-2.02l0.1-0.1l1.45-1.45l0.89-0.89l0.56-0.56l0.08-0.08l-0.04-0.04l-0.36-0.36l-0.41-0.41l-0.76-0.76l-9.04-9.04
				l-0.67-0.67l-0.67-0.67l-1.39-1.39l-0.79-0.79l-0.79-0.79l-9.68-9.68l-1.47-1.47L87.56,78.84z M105.29,104.9
				c1.57,0,2.84,1.27,2.84,2.84c0,1.57-1.27,2.84-2.84,2.84c-1.57,0-2.84-1.27-2.84-2.84C102.45,106.17,103.72,104.9,105.29,104.9z"
				/>
		</g>
	</g>
</g>
<g id="Calque_16" class="st0">
	<g class="st1">
		<g>
			<polygon class="st2" points="116.71,105.54 133.74,89.36 123.12,78.18 			"/>
			<polygon class="st2" points="110.89,88.29 111.22,89.3 115.46,102.54 120.66,80.33 121.06,78.64 121.43,77.04 121.37,77.02 
				106.28,73.49 106.23,73.72 110.57,87.28 			"/>
			<polygon class="st2" points="104.82,75.57 104.25,73.8 104.09,73.3 89.28,78.05 89.82,79.75 100.38,90.31 101.18,91.11 
				101.97,91.9 103.79,93.72 104.47,94.4 105.14,95.07 113.81,103.74 113.83,103.69 109.68,90.76 109.36,89.75 109.04,88.74 
				105.38,77.34 			"/>
			<path class="st2" d="M87.56,78.84l-0.03,0.03L76.56,89.84l19.4,19.4l0.79,0.79l0.79,0.79l0.34,0.34l0.24,0.24l1.01,1.01
				l0.22,0.22l0.8,0.8l0.68,0.68l0.76,0.76l0.71,0.71l0.71,0.71l1.07,1.07l3.41-3.41l0.08-0.08l0.15-0.15l0.75-0.75l0.38-0.38
				l0.52-0.52l0.38-0.38l0.24-0.24l2.02-2.02l0.1-0.1l1.45-1.45l0.89-0.89l0.56-0.56l0.08-0.08l-0.04-0.04l-0.36-0.36l-0.41-0.41
				l-0.76-0.76l-9.04-9.04l-0.67-0.67l-0.67-0.67l-1.39-1.39l-0.79-0.79l-0.79-0.79l-9.68-9.68l-1.47-1.47L87.56,78.84z
				 M105.29,104.9c1.57,0,2.84,1.27,2.84,2.84c0,1.57-1.27,2.84-2.84,2.84c-1.57,0-2.84-1.27-2.84-2.84
				C102.45,106.17,103.72,104.9,105.29,104.9z"/>
		</g>
	</g>
</g>
<g id="Calque_17">
	<g>
		<path d="M128.95,85.21c0-1.67-1.35-3.02-3.02-3.02H84.43c-1.67,0-3.02,1.35-3.02,3.02v23.84c0,1.67,1.35,3.02,3.02,3.02h41.49
			c1.67,0,3.02-1.35,3.02-3.02V85.21z M126.23,109.21c0,0.29,0.03,0.82-0.26,0.82H84.63c-0.29,0-0.51-0.31-0.51-0.6l0.01-15.7h42.11
			V109.21z M126.23,86.94H84.12v-1.71c0-0.29,0.22-0.33,0.51-0.33h41.13c0.29,0,0.48,0.04,0.48,0.33V86.94z"/>
		<rect x="85.48" y="103.24" width="6.11" height="4.75"/>
		<rect x="94.99" y="95.77" width="29.21" height="0.68"/>
		<rect x="94.99" y="97.81" width="14.26" height="0.68"/>
		<rect x="120.8" y="97.81" width="3.4" height="0.68"/>
	</g>
</g>
<g id="Calque_18" class="st0">
	<g class="st1">
		<path class="st2" d="M128.95,85.21c0-1.67-1.35-3.02-3.02-3.02H84.43c-1.67,0-3.02,1.35-3.02,3.02v23.84
			c0,1.67,1.35,3.02,3.02,3.02h41.49c1.67,0,3.02-1.35,3.02-3.02V85.21z M126.23,109.21c0,0.29,0.03,0.82-0.26,0.82H84.63
			c-0.29,0-0.51-0.31-0.51-0.6l0.01-15.7h42.11V109.21z M126.23,86.94H84.12v-1.71c0-0.29,0.22-0.33,0.51-0.33h41.13
			c0.29,0,0.48,0.04,0.48,0.33V86.94z"/>
		<rect x="85.48" y="103.24" class="st2" width="6.11" height="4.75"/>
		<rect x="94.99" y="95.77" class="st2" width="29.21" height="0.68"/>
		<rect x="94.99" y="97.81" class="st2" width="14.26" height="0.68"/>
		<rect x="120.8" y="97.81" class="st2" width="3.4" height="0.68"/>
	</g>
</g>
</svg>
